<?xml version="1.0" standalone="no"?><!DOCTYPE svg PUBLIC "-//W3C//DTD SVG 1.1//EN" "http://www.w3.org/Graphics/SVG/1.1/DTD/svg11.dtd"><svg t="1625627870852" class="icon" viewBox="0 0 1144 1024" version="1.1" xmlns="http://www.w3.org/2000/svg" p-id="2395" xmlns:xlink="http://www.w3.org/1999/xlink" width="223.4375" height="200"><defs><style type="text/css"></style></defs><path d="M708.614869 469.92957c46.935718-50.370039 73.265511-116.766909 73.265511-187.742874 0-71.548351-27.474567-139.089994-76.699832-190.03242C655.382895 41.21185 589.558413 13.164897 520.299609 13.164897c-69.831191 0-135.655674 28.046954-184.880939 78.989379-49.797652 50.942426-77.272219 118.484069-77.272219 190.03242 0 52.0872 13.737283 101.884852 40.067076 144.813863 21.178312 34.343208 49.797652 63.534936 83.568474 85.285634-35.487982 12.59251-68.686417 30.336501-99.595305 52.659587-37.205143 26.329793-70.403577 58.955841-97.878144 96.160984-28.046954 37.777529-49.225266 78.98938-64.107322 123.63555-15.454444 45.790945-22.895472 94.443823-22.895473 143.096702 0 18.888765 13.164897 32.626048 32.053662 32.626048s32.053661-13.737283 32.053661-32.626048c0-50.370039 9.730576-99.595305 28.61934-145.958636 18.316378-44.646171 44.646171-85.285634 78.416993-119.628843 33.770822-34.343208 72.693125-61.817775 116.194522-80.70654 45.218558-19.461151 92.726663-29.764114 141.379542-29.764114h2.289547c69.258804-2.289547 132.79374-31.481274 180.301845-81.851313z m9.158189-187.742874c0 54.376747-20.605925 105.319173-58.383455 144.241476C622.184461 465.350475 572.386808 486.528787 519.727222 486.528787S417.84237 465.350475 380.064841 427.000559c-37.777529-38.922303-58.383454-89.864729-58.383455-144.241476S342.287311 177.439911 380.064841 138.517608c37.205143-38.349916 87.002795-60.100615 139.662381-60.100615s101.884852 21.178312 139.662381 60.100615c37.777529 38.349916 58.383454 89.292342 58.383455 143.669088zM973.057574 829.960872c0 66.969257-54.376747 121.91839-121.91839 121.91839s-121.91839-54.376747-121.91839-121.91839c0-66.969257 54.376747-121.91839 121.91839-121.91839S973.057574 762.991615 973.057574 829.960872z m-121.346003-187.170486c-103.602012 0-187.742873 84.140861-187.742873 187.742873s84.140861 187.742873 187.742873 187.742873 187.742873-84.140861 187.742873-187.742873-84.140861-187.742873-187.742873-187.742873z" p-id="2396"></path><path d="M811.644494 396.664058h80.134153v263.297932h-80.134153z" p-id="2397"></path><path d="M962.651582 487.80521v80.134153h-98.450531v-80.134153z" p-id="2398"></path></svg>